<svg width="90" height="90" fill="none" xmlns="http://www.w3.org/2000/svg"><path d="M45 0a44.994 44.994 0 00-31.816 13.18A45.013 45.013 0 000 45a45.013 45.013 0 0013.184 31.82 44.995 44.995 0 0063.632 0A45.014 45.014 0 0090 45a45.014 45.014 0 00-13.184-31.82A44.994 44.994 0 0045 0z" fill="url(#paint0_linear_125_5377)"/><path d="M23.744 45.07c11.617-5.129 19.362-8.51 23.234-10.144 11.07-4.665 13.367-5.476 14.867-5.503.33-.005 1.065.077 1.544.47.398.331.51.78.566 1.094.05.314.119 1.03.063 1.59-.598 6.385-3.194 21.882-4.514 29.034-.554 3.026-1.656 4.04-2.72 4.14-2.316.216-4.072-1.55-6.313-3.038-3.505-2.33-5.485-3.78-8.89-6.054-3.935-2.628-1.383-4.072.858-6.432.586-.618 10.783-10.017 10.976-10.87.025-.106.05-.503-.186-.713-.23-.21-.573-.138-.822-.081-.355.08-5.952 3.834-16.81 11.259-1.587 1.107-3.025 1.646-4.32 1.618-1.42-.031-4.159-.816-6.195-1.486-2.49-.822-4.476-1.257-4.302-2.653.087-.727 1.077-1.47 2.964-2.231z" fill="#fff"/><defs><linearGradient id="paint0_linear_125_5377" x1="45" y1="0" x2="45" y2="90" gradientUnits="userSpaceOnUse"><stop stop-color="#5BC7FF"/><stop offset=".448" stop-color="#229ED9"/><stop offset=".984" stop-color="#226BD9"/></linearGradient></defs></svg>