<svg width="90" height="90" fill="none" xmlns="http://www.w3.org/2000/svg"><circle cx="45" cy="45" r="45" fill="#D9D9D9"/><circle cx="45" cy="45" r="45" fill="url(#paint0_linear_450_6601)"/><path fill-rule="evenodd" clip-rule="evenodd" d="M54.872 35.128a11.882 11.882 0 00-8.389-3.48v2.968a8.91 8.91 0 018.901 8.9h2.968a11.883 11.883 0 00-3.48-8.388zM35.637 54.362C47.095 65.617 56.005 65.77 56.095 65.77c1.11 0 9.674-6.923 9.678-8.453 0-.53-.36-.934-.9-1.396-1.296-1.09-8.898-5.914-10.165-5.684-.595.107-1.047.612-2.264 2.061a17.119 17.119 0 01-1.846 1.999 15.938 15.938 0 01-3.521-1.307A21.773 21.773 0 0137.01 42.928a15.938 15.938 0 01-1.307-3.522 17.119 17.119 0 011.999-1.846c1.449-1.216 1.954-1.668 2.06-2.264.222-1.267-4.594-8.868-5.683-10.165-.453-.54-.866-.9-1.396-.9-1.53 0-8.453 8.564-8.453 9.674 0 .09.152 9.004 11.406 20.457zm22.38-22.379A16.336 16.336 0 0162.8 43.516h2.968a19.308 19.308 0 00-19.286-19.285v2.968a16.336 16.336 0 0111.534 4.784z" fill="#fff"/><defs><linearGradient id="paint0_linear_450_6601" x1="5.382" y1="86.601" x2="74.427" y2="14.103" gradientUnits="userSpaceOnUse"><stop stop-color="#00A1E2"/><stop offset="1" stop-color="#00E0A5"/></linearGradient></defs></svg>