<svg width="90" height="90" viewBox="0 0 90 90" fill="none" xmlns="http://www.w3.org/2000/svg">
<path d="M45 0C33.068 0 21.6141 4.74398 13.1836 13.1801C4.74443 21.6195 0.00233768 33.065 0 45C0 56.9299 4.74609 68.3838 13.1836 76.8199C21.6141 85.256 33.068 90 45 90C56.932 90 68.3859 85.256 76.8164 76.8199C85.2539 68.3838 90 56.9299 90 45C90 33.0701 85.2539 21.6162 76.8164 13.1801C68.3859 4.74398 56.932 0 45 0Z" fill="url(#paint0_linear_125_5377)"/>
<path d="M23.7436 45.0698C35.3608 39.941 43.1056 36.5594 46.978 34.9258C58.0473 30.2608 60.3446 29.4505 61.845 29.4231C62.175 29.4177 62.9096 29.5004 63.389 29.8932C63.7874 30.2245 63.8995 30.6725 63.9555 30.987C64.0053 31.3013 64.0738 32.0175 64.0178 32.5765C63.4201 38.9623 60.824 54.4585 59.5041 61.611C58.9501 64.6373 57.8481 65.6519 56.7835 65.751C54.4675 65.9668 52.7119 64.2012 50.4706 62.7127C46.9655 60.3824 44.9858 58.9324 41.5803 56.6588C37.6457 54.0313 40.1982 52.587 42.4395 50.227C43.0247 49.6093 53.2224 40.2104 53.4154 39.3579C53.4403 39.2513 53.4652 38.8538 53.2286 38.6443C52.9983 38.4342 52.6559 38.5061 52.4068 38.5629C52.052 38.6437 46.455 42.3969 35.5974 49.8219C34.0098 50.9287 32.5717 51.4682 31.2767 51.4398C29.8573 51.4089 27.118 50.6245 25.0822 49.9544C22.5919 49.1322 20.6059 48.6975 20.7802 47.301C20.8674 46.5741 21.8572 45.8302 23.7436 45.0698V45.0698Z" fill="white"/>
<defs>
<linearGradient id="paint0_linear_125_5377" x1="45" y1="0" x2="45" y2="90" gradientUnits="userSpaceOnUse">
<stop stop-color="#5BC7FF"/>
<stop offset="0.447917" stop-color="#229ED9"/>
<stop offset="0.984375" stop-color="#226BD9"/>
</linearGradient>
</defs>
</svg>
