<svg width="90" height="90" viewBox="0 0 90 90" fill="none" xmlns="http://www.w3.org/2000/svg">
<circle cx="45" cy="45" r="45" fill="#D9D9D9"/>
<circle cx="45" cy="45" r="45" fill="url(#paint0_linear_450_6601)"/>
<path fill-rule="evenodd" clip-rule="evenodd" d="M54.8718 35.1281C52.6468 32.9031 49.6301 31.6515 46.4835 31.6479V34.6156C48.8434 34.618 51.1059 35.5566 52.7746 37.2252C54.4433 38.8939 55.3819 41.1565 55.3843 43.5163H58.352C58.3483 40.3698 57.0967 37.3531 54.8718 35.1281ZM35.6374 54.3625C47.0951 65.6171 56.0051 65.7694 56.0951 65.7694C57.2051 65.7694 65.7689 58.8463 65.7735 57.3163C65.7735 56.7856 65.4135 56.3817 64.8735 55.9202C63.5766 54.8309 55.9751 50.0056 54.7082 50.2363C54.1128 50.3425 53.6605 50.8479 52.4443 52.2971C51.8829 53.0112 51.2656 53.6795 50.5982 54.2956C49.3769 54.0005 48.1949 53.5621 47.0766 52.9894C42.6889 50.8579 39.144 47.3146 37.0105 42.9279C36.4378 41.8096 35.9994 40.6276 35.7043 39.4063C36.3204 38.7389 36.9887 38.1216 37.7028 37.5602C39.152 36.344 39.6574 35.8917 39.7635 35.2963C39.9851 34.0294 35.1689 26.4279 34.0797 25.131C33.6274 24.591 33.2143 24.231 32.6835 24.231C31.1535 24.231 24.2305 32.7948 24.2305 33.9048C24.2305 33.9948 24.3828 42.9094 35.6374 54.3625ZM58.0165 31.9834C61.0756 35.0425 62.7963 39.1901 62.8012 43.5163H65.7689C65.7628 38.4034 63.729 33.5016 60.1136 29.8863C56.4982 26.2709 51.5965 24.2371 46.4835 24.231V27.1986C50.8098 27.2035 54.9574 28.9243 58.0165 31.9834Z" fill="white"/>
<defs>
<linearGradient id="paint0_linear_450_6601" x1="5.38202" y1="86.601" x2="74.427" y2="14.103" gradientUnits="userSpaceOnUse">
<stop stop-color="#00A1E2"/>
<stop offset="1" stop-color="#00E0A5"/>
</linearGradient>
</defs>
</svg>
