<svg width="101" height="40" fill="none" xmlns="http://www.w3.org/2000/svg"><path d="M24.799 29.403a41.132 41.132 0 00-8.827-9.53 1.127 1.127 0 00-1.484.098 1.107 1.107 0 00-.06 1.488 38.4 38.4 0 017.63 14.784 1.127 1.127 0 001.076.829h.118a1.11 1.11 0 00.995-1.057 38.06 38.06 0 01.715-5.767 1.105 1.105 0 00-.163-.845z" fill="#00939D"/><path d="M48.498 1.242a1.127 1.127 0 00-1.012-.648c-.142 0-.282.028-.414.082a39.635 39.635 0 00-8.468 4.668 39.938 39.938 0 00-16.582 30.57v.048c0 .095.014.19.039.281.107.4.206.8.299 1.203a1.129 1.129 0 00.512.707l.076.043c.076.046.158.082.243.107l2.535.791c.107.032.218.048.33.048a1.11 1.11 0 001.113-1.127v-.924c0-1.025.039-2.056.12-3.07A38.494 38.494 0 0140.732 7.63c.369-.318.763-.642 1.163-.96l.034-.022a38.771 38.771 0 016.082-3.945 1.127 1.127 0 00.488-1.462zM3.337 30.431a1.267 1.267 0 01-1.127-.69A20.084 20.084 0 0127.517 1.924a1.268 1.268 0 01-.94 2.355 17.548 17.548 0 00-24.048 16.29 17.337 17.337 0 001.935 8.014 1.268 1.268 0 01-1.127 1.848z" fill="#69DBC8"/><path d="M54.704 21.49c.06-.005.12-.005.18 0h-.36c.06-.005.12-.005.18 0zm-11.931.01h-.44c.146-.022.294-.022.44 0z" fill="#00A376"/><path d="M90.39 32.375c0-.11-.014-.217-.026-.324a6.914 6.914 0 00-1.69-4.031c-1.155-1.315-2.677-1.972-4.567-1.972a6.126 6.126 0 00-4.645 1.947 6.663 6.663 0 00-1.84 4.752c0 1.995.631 3.614 1.893 4.857 1.262 1.243 2.864 1.865 4.806 1.865 1.702 0 3.133-.381 4.294-1.144a1.127 1.127 0 00.377-1.45l-.18-.26a1.126 1.126 0 00-1.257-.276 6.096 6.096 0 01-.298.18 5.756 5.756 0 01-2.646.674 3.998 3.998 0 01-2.83-1.006 3.874 3.874 0 01-1.246-2.516h8.5a1.35 1.35 0 001.355-1.296zm-9.878-.656a3.89 3.89 0 011.031-2.37c.616-.677 1.472-1.017 2.567-1.02 1.15 0 2.027.345 2.634 1.035.592.645.934 1.48.966 2.355h-7.198zm-3.77-3.969c.001.094-.008.188-.028.28v.032l-.065.208a.04.04 0 000 .017l-2.862 9.215s-.147.474-.15.476a2.023 2.023 0 01-3.611.124l-.226-.712-2.406-7.607-2.44 7.716-.165.465a2.026 2.026 0 01-3.615.116l-.225-.721-2.818-9.077-.084-.282a1.223 1.223 0 01-.028-.282 1.375 1.375 0 012.654-.46l.073.255 2.211 7.606.164.563.172-.526 2.422-7.401.136-.409a1.69 1.69 0 011.298-.946h.457a1.691 1.691 0 011.298.946l.136.409 2.428 7.392.175.53.16-.564 2.206-7.58.088-.305a1.374 1.374 0 012.642.535l.003-.014z" fill="#00939D"/><path d="M60.746 27.499l-.073-.254c.034.081.059.166.073.254zm13.267.019c.014-.105.044-.207.087-.304l-.087.304zm-8.159-.2l-.135.409c.027-.142.072-.28.135-.409zm1.753-.947h-.46a1.528 1.528 0 01.46 0zm1.439 1.356l-.135-.409c.063.13.108.267.135.409zM56.264 22.88v9.298c0 2.254-.648 4.038-1.944 5.352-1.295 1.315-3.189 1.972-5.68 1.972-2.505 0-4.405-.657-5.701-1.972-1.296-1.314-1.945-3.088-1.947-5.321V22.84a1.572 1.572 0 011.341-1.34h.44a1.575 1.575 0 011.343 1.36v9.23c0 1.427.393 2.554 1.178 3.38.783.845 1.902 1.245 3.347 1.245s2.558-.414 3.336-1.245c.777-.831 1.166-1.972 1.166-3.38v-9.21a1.569 1.569 0 011.38-1.38h.36a1.566 1.566 0 011.381 1.38zm37.542-1.393a1.409 1.409 0 00-1.392 1.301v15.03a1.394 1.394 0 002.78 0v-15.03a1.391 1.391 0 00-1.388-1.301zm5.636 0a1.409 1.409 0 00-1.392 1.301v15.03a1.394 1.394 0 002.78 0v-15.03a1.392 1.392 0 00-1.388-1.301z" fill="#00939D"/></svg>