<svg width="139" height="53" fill="none" xmlns="http://www.w3.org/2000/svg"><path d="M34.431 39.29c-3.316-4.94-7.364-9.305-12.069-12.943-.578-.46-1.503-.421-2.043.153a1.515 1.515 0 00-.077 2.03c4.935 5.936 8.482 12.676 10.449 20.105.193.65.771 1.11 1.465 1.11h.154a1.487 1.487 0 001.35-1.417c.116-2.642.463-5.284.964-7.85a1.425 1.425 0 00-.193-1.187z" fill="#fff"/><path d="M66.897 1.034c-.231-.536-.81-.88-1.388-.88-.193 0-.386.038-.578.114a55.157 55.157 0 00-9.678 5.017c-.656.421-1.312.88-1.928 1.302-11.22 8.042-18.894 19.837-21.632 33.24a59.713 59.713 0 00-1.04 8.31v.076c0 .115 0 .268.038.383.154.536.27 1.073.424 1.647.077.383.347.727.694.957l.116.077c.115.076.231.115.347.153l3.47 1.072c.154.039.309.077.463.077.347 0 .655-.115.925-.306.386-.307.617-.766.617-1.226v-1.264c0-1.378.039-2.795.154-4.174 1.118-13.977 7.635-26.73 18.393-35.882.5-.421 1.04-.88 1.58-1.302l.039-.038a54.041 54.041 0 018.329-5.362c.694-.42 1.002-1.263.655-1.99zM5.088 40.707a1.772 1.772 0 01-1.542-.919A27.186 27.186 0 01.5 27.266C.5 12.254 12.839 0 27.953 0c3.51 0 6.941.651 10.218 1.953a1.705 1.705 0 01.964 2.221c-.347.88-1.35 1.302-2.236.957a24.565 24.565 0 00-8.946-1.684C14.728 3.447 3.97 14.13 3.97 27.266c0 3.83.887 7.506 2.66 10.914a1.753 1.753 0 01-.732 2.336c-.27.115-.54.191-.81.191zm53.944-12.139h-.617c.116 0 .193-.038.308-.038.116 0 .232 0 .309.038zm65.201 14.782c0-.153 0-.306-.039-.421-.231-2.183-1.002-3.983-2.313-5.476-1.581-1.762-3.663-2.681-6.246-2.681-2.545 0-4.666.88-6.363 2.642-1.696 1.762-2.506 3.906-2.506 6.472 0 2.72.848 4.902 2.584 6.587 1.735 1.685 3.932 2.527 6.593 2.527 2.313 0 4.28-.498 5.861-1.57.424-.268.694-.727.694-1.264 0-.23-.077-.497-.154-.689l-.232-.344a1.522 1.522 0 00-1.118-.498c-.193 0-.424.038-.578.115-.116.076-.27.153-.424.23-.309.153-.579.306-.926.42a7.47 7.47 0 01-2.699.498c-1.581 0-2.892-.46-3.856-1.378-1.002-.92-1.542-2.068-1.696-3.408h11.644c.926 0 1.735-.805 1.774-1.762zm-13.534-.92c.116-1.224.578-2.297 1.427-3.216.848-.919 2.005-1.378 3.509-1.378 1.58 0 2.776.46 3.585 1.416.849.92 1.273 1.992 1.311 3.217h-9.832v-.038zm-5.167-5.399c0 .115 0 .269-.038.383v.039l-.077.268v.038l-3.933 12.522-.193.651a2.725 2.725 0 01-2.506 1.609 2.777 2.777 0 01-2.43-1.417l-.308-.957-3.277-10.34-3.355 10.493-.231.612a2.725 2.725 0 01-2.507 1.609 2.777 2.777 0 01-2.429-1.417l-.308-.996-3.856-12.33-.116-.384c-.038-.114-.038-.23-.038-.383 0-1.033.848-1.876 1.889-1.876.81 0 1.465.498 1.735 1.187l.116.345 3.007 10.34.232.765.231-.727 3.316-10.072.193-.574c.308-.69 1.002-1.187 1.774-1.302h.617c.77.115 1.465.612 1.773 1.302l.193.574 3.316 10.072.231.727.232-.766 3.007-10.3.116-.422c.27-.69.964-1.149 1.735-1.149 1.041 0 1.889.843 1.889 1.876z" fill="#fff"/><path d="M83.631 36.687l-.115-.345c.077.115.115.23.115.345zm18.161.038c0-.153.078-.268.116-.421l-.116.421zm-11.143-.268l-.193.575c.039-.23.116-.383.193-.575zm2.391-1.302h-.617c.115 0 .193-.038.308-.038.116.038.193.038.309.038zm1.966 1.877l-.192-.575c.077.191.154.345.192.575zm-17.505-6.587v12.637c0 3.063-.887 5.476-2.66 7.276-1.774 1.761-4.358 2.68-7.79 2.68-3.43 0-6.014-.88-7.788-2.68-1.774-1.762-2.66-4.174-2.66-7.238V30.368c.115-.957.886-1.685 1.85-1.838h.617c.964.115 1.735.88 1.851 1.838v12.56c0 1.954.54 3.486 1.62 4.596 1.08 1.149 2.621 1.685 4.588 1.685 1.966 0 3.509-.574 4.55-1.685 1.08-1.11 1.58-2.68 1.58-4.595V30.444a2.126 2.126 0 011.89-1.876h.501c.964.077 1.735.88 1.851 1.877zm51.398-1.915c-1.003 0-1.851.766-1.89 1.761v20.412a1.891 1.891 0 001.89 1.761c1.002 0 1.85-.766 1.889-1.761V30.29c-.039-.957-.887-1.761-1.889-1.761zm7.712 0c-1.003 0-1.851.766-1.89 1.761v20.412a1.891 1.891 0 001.89 1.761c1.002 0 1.85-.766 1.889-1.761V30.29c-.039-.957-.887-1.761-1.889-1.761z" fill="#fff"/></svg>