<svg viewBox="0 0 24 24"  xmlns="http://www.w3.org/2000/svg" style="display:none">

	<symbol viewBox="0 0 30 30" id="arrow-next">
		<path d="M16.4062 5.87505L24.6562 14.125C24.7812 14.25 24.87 14.3855 24.9225 14.5313C24.975 14.6771 25.0008 14.8334 25 15C25 15.1667 24.9737 15.323 24.9212 15.4688C24.8687 15.6146 24.7804 15.75 24.6562 15.875L16.4062 24.125C16.1771 24.3542 15.8904 24.4738 15.5462 24.4838C15.2021 24.4938 14.9054 24.3742 14.6562 24.125C14.4062 23.8959 14.2758 23.6092 14.265 23.265C14.2541 22.9209 14.3741 22.6242 14.625 22.375L20.75 16.25L6.78123 16.25C6.42706 16.25 6.12998 16.13 5.88998 15.89C5.64998 15.65 5.5304 15.3534 5.53123 15C5.53123 14.6459 5.65081 14.3488 5.88998 14.1088C6.12915 13.8688 6.42623 13.7492 6.78123 13.75L20.75 13.75L14.625 7.62504C14.3958 7.39588 14.2758 7.10421 14.265 6.75004C14.2541 6.39588 14.3741 6.10421 14.625 5.87505C14.8541 5.62505 15.1458 5.50004 15.5 5.50004C15.8541 5.50004 16.1562 5.62505 16.4062 5.87505Z"/>
	</symbol>

	<symbol viewBox="0 0 30 30" id="slider-arrow-prev">
		<path d="M18.9063 26.375L8.37502 15.875C8.25002 15.75 8.16127 15.6146 8.10877 15.4688C8.05627 15.3229 8.03044 15.1667 8.03127 15C8.03127 14.8333 8.0571 14.6771 8.10877 14.5312C8.16044 14.3854 8.24919 14.25 8.37502 14.125L18.9063 3.59375C19.1979 3.30208 19.5625 3.15625 20 3.15625C20.4375 3.15625 20.8125 3.3125 21.125 3.625C21.4375 3.9375 21.5938 4.30208 21.5938 4.71875C21.5938 5.13542 21.4375 5.5 21.125 5.8125L11.9375 15L21.125 24.1875C21.4167 24.4792 21.5625 24.8387 21.5625 25.2663C21.5625 25.6938 21.4063 26.0633 21.0938 26.375C20.7813 26.6875 20.4167 26.8438 20 26.8438C19.5834 26.8438 19.2188 26.6875 18.9063 26.375Z"/>
	</symbol>

	<symbol viewBox="0 0 30 30" id="slider-arrow-next">
		<path d="M11.0937 26.375L21.625 15.875C21.75 15.75 21.8387 15.6146 21.8912 15.4688C21.9437 15.3229 21.9696 15.1667 21.9687 15C21.9687 14.8333 21.9429 14.6771 21.8912 14.5312C21.8396 14.3854 21.7508 14.25 21.625 14.125L11.0937 3.59375C10.8021 3.30208 10.4375 3.15625 9.99998 3.15625C9.56248 3.15625 9.18748 3.3125 8.87498 3.625C8.56248 3.9375 8.40623 4.30208 8.40623 4.71875C8.40623 5.13542 8.56248 5.5 8.87498 5.8125L18.0625 15L8.87498 24.1875C8.58332 24.4792 8.43748 24.8387 8.43748 25.2663C8.43748 25.6938 8.59373 26.0633 8.90623 26.375C9.21873 26.6875 9.58332 26.8438 9.99998 26.8438C10.4166 26.8438 10.7812 26.6875 11.0937 26.375Z"/>
	</symbol>

	<symbol viewBox="0 0 30 30" id="quote">
		<path d="M10.1982 5.31668C10.3685 5.19192 10.5623 5.10114 10.7685 5.04954C10.9747 4.99793 11.1893 4.98651 11.4 5.01591C11.6107 5.04532 11.8135 5.11498 11.9966 5.22092C12.1798 5.32687 12.3398 5.46701 12.4675 5.63336C12.5952 5.79971 12.6881 5.989 12.741 6.19043C12.7938 6.39186 12.8055 6.60148 12.7754 6.80733C12.7453 7.01317 12.674 7.21121 12.5655 7.39013C12.4571 7.56905 12.3136 7.72536 12.1433 7.85012C9.60821 9.70745 8.15587 11.5141 7.32435 13.0912C8.46607 12.8041 9.67099 12.8716 10.7716 13.2843C11.8723 13.697 12.814 14.4344 13.4658 15.394C14.1176 16.3536 14.4472 17.4878 14.4088 18.6388C14.3703 19.7899 13.9658 20.9006 13.2513 21.8167C12.5368 22.7328 11.5479 23.4086 10.4221 23.7504C9.29622 24.0921 8.08936 24.0828 6.96922 23.7236C5.84909 23.3644 4.87133 22.6732 4.17185 21.7462C3.47237 20.8191 3.08592 19.7022 3.06621 18.5507C2.85851 16.6062 3.14121 14.6416 3.88963 12.8283C4.85732 10.4437 6.74892 7.84378 10.1982 5.31668ZM24.7864 5.31668C24.9567 5.19192 25.1505 5.10114 25.3567 5.04954C25.5629 4.99793 25.7775 4.98651 25.9882 5.01591C26.1989 5.04532 26.4016 5.11498 26.5848 5.22092C26.768 5.32687 26.928 5.46701 27.0557 5.63336C27.1834 5.79971 27.2763 5.989 27.3292 6.19043C27.382 6.39186 27.3937 6.60148 27.3636 6.80733C27.3335 7.01317 27.2622 7.21121 27.1537 7.39013C27.0453 7.56905 26.9018 7.72536 26.7315 7.85012C24.1964 9.70745 22.7441 11.5141 21.9125 13.0912C23.0543 12.8041 24.2592 12.8716 25.3598 13.2843C26.4605 13.697 27.4022 14.4344 28.054 15.394C28.7058 16.3536 29.0354 17.4878 28.997 18.6388C28.9585 19.7899 28.554 20.9006 27.8395 21.8167C27.125 22.7328 26.1361 23.4086 25.0103 23.7504C23.8844 24.0921 22.6776 24.0828 21.5574 23.7236C20.4373 23.3644 19.4595 22.6732 18.76 21.7462C18.0606 20.8191 17.6741 19.7022 17.6544 18.5507C17.4467 16.6062 17.7294 14.6416 18.4778 12.8283C19.4471 10.4437 21.3371 7.84378 24.7864 5.31668Z"/>
	</symbol>

	<symbol viewBox="0 0 21 22" id="facebook">
		<path d="M17.7188 2.17188H3.28125C2.75911 2.17188 2.25835 2.3793 1.88913 2.74851C1.51992 3.11772 1.3125 3.61848 1.3125 4.14062L1.3125 18.5781C1.3125 19.1003 1.51992 19.601 1.88913 19.9702C2.25835 20.3395 2.75911 20.5469 3.28125 20.5469H8.91064V14.2998H6.32666V11.3594H8.91064V9.11828C8.91064 6.56916 10.4282 5.16109 12.7526 5.16109C13.8657 5.16109 15.0298 5.35961 15.0298 5.35961V7.86156H13.7472C12.4835 7.86156 12.0894 8.64578 12.0894 9.4501V11.3594H14.9104L14.4592 14.2998H12.0894V20.5469H17.7188C18.2409 20.5469 18.7417 20.3395 19.1109 19.9702C19.4801 19.601 19.6875 19.1003 19.6875 18.5781V4.14062C19.6875 3.61848 19.4801 3.11772 19.1109 2.74851C18.7417 2.3793 18.2409 2.17188 17.7188 2.17188Z"/>
	</symbol>

	<symbol viewBox="0 0 19 19" id="instagram">
		<path d="M9.50327 4.64255C6.89468 4.64255 4.79058 6.74665 4.79058 9.35525C4.79058 11.9638 6.89468 14.0679 9.50327 14.0679C12.1119 14.0679 14.216 11.9638 14.216 9.35525C14.216 6.74665 12.1119 4.64255 9.50327 4.64255ZM9.50327 12.4191C7.81753 12.4191 6.4394 11.0451 6.4394 9.35525C6.4394 7.6654 7.81343 6.29138 9.50327 6.29138C11.1931 6.29138 12.5671 7.6654 12.5671 9.35525C12.5671 11.0451 11.189 12.4191 9.50327 12.4191ZM15.508 4.44978C15.508 5.06091 15.0158 5.549 14.4087 5.549C13.7976 5.549 13.3095 5.05681 13.3095 4.44978C13.3095 3.84275 13.8017 3.35056 14.4087 3.35056C15.0158 3.35056 15.508 3.84275 15.508 4.44978ZM18.6292 5.5654C18.5595 4.09294 18.2232 2.78865 17.1445 1.71404C16.0699 0.639429 14.7656 0.303101 13.2931 0.229272C11.7755 0.14314 7.2269 0.14314 5.70933 0.229272C4.24097 0.298999 2.93667 0.635327 1.85796 1.70994C0.779248 2.78455 0.447021 4.08884 0.373193 5.5613C0.287061 7.07888 0.287061 11.6275 0.373193 13.1451C0.44292 14.6176 0.779248 15.9218 1.85796 16.9965C2.93667 18.0711 4.23687 18.4074 5.70933 18.4812C7.2269 18.5674 11.7755 18.5674 13.2931 18.4812C14.7656 18.4115 16.0699 18.0752 17.1445 16.9965C18.2191 15.9218 18.5554 14.6176 18.6292 13.1451C18.7154 11.6275 18.7154 7.08298 18.6292 5.5654ZM16.6687 14.7734C16.3488 15.5773 15.7294 16.1967 14.9214 16.5207C13.7115 17.0006 10.8404 16.8898 9.50327 16.8898C8.16616 16.8898 5.29097 16.9965 4.08511 16.5207C3.2812 16.2008 2.66187 15.5814 2.33784 14.7734C1.85796 13.5635 1.9687 10.6924 1.9687 9.35525C1.9687 8.01814 1.86206 5.14294 2.33784 3.93708C2.65776 3.13318 3.2771 2.51384 4.08511 2.18982C5.29507 1.70994 8.16616 1.82068 9.50327 1.82068C10.8404 1.82068 13.7156 1.71404 14.9214 2.18982C15.7253 2.50974 16.3447 3.12908 16.6687 3.93708C17.1486 5.14705 17.0378 8.01814 17.0378 9.35525C17.0378 10.6924 17.1486 13.5676 16.6687 14.7734Z"/>
	</symbol>

	<symbol viewBox="0 0 21 22" id="linkedIn">
		<path d="M5.42555 19.2343H1.61602V6.96656H5.42555V19.2343ZM3.51873 5.29312C2.30057 5.29312 1.3125 4.28414 1.3125 3.06597C1.3125 2.48084 1.54494 1.91968 1.95869 1.50593C2.37244 1.09218 2.9336 0.859741 3.51873 0.859741C4.10386 0.859741 4.66502 1.09218 5.07877 1.50593C5.49252 1.91968 5.72496 2.48084 5.72496 3.06597C5.72496 4.28414 4.73648 5.29312 3.51873 5.29312ZM19.6834 19.2343H15.8821V13.2625C15.8821 11.8392 15.8534 10.014 13.9014 10.014C11.9208 10.014 11.6173 11.5603 11.6173 13.1599V19.2343H7.81184V6.96656H11.4655V8.64H11.5188C12.0274 7.67613 13.2698 6.65894 15.1233 6.65894C18.9788 6.65894 19.6875 9.19781 19.6875 12.4955V19.2343H19.6834Z"/>
	</symbol>

	<symbol viewBox="0 0 700 600" id="telegram">
		<path fill-rule="evenodd" clip-rule="evenodd" d="M560.835 63.884C551.878 42.0018 551.876 42.0024 551.876 42.0024L551.872 42.0041L550.558 42.5414C549.695 42.894 548.426 43.4129 546.8 44.0784C543.547 45.4094 538.862 47.3271 533.134 49.6746C521.677 54.3693 506.043 60.7845 489.333 67.6655C456.121 81.3417 418.357 96.9826 400.883 104.546C356.128 123.119 269.382 158.719 193.734 189.713C155.874 205.225 120.811 219.575 95.2134 230.048C82.4145 235.285 71.982 239.552 64.7494 242.509C61.1331 243.988 58.3168 245.14 56.4047 245.922L53.504 247.107C36.9674 253.569 24.2443 260.909 15.6489 269.812C6.23355 279.565 1.47769 291.699 3.43434 304.514C5.1546 315.782 11.5286 323.645 15.4973 327.714C17.6755 329.948 19.7464 331.667 21.2996 332.853C22.0894 333.456 22.7809 333.947 23.3323 334.324C23.609 334.514 23.8532 334.676 24.06 334.811C24.1635 334.878 24.2579 334.939 24.3427 334.993C24.385 335.02 24.425 335.045 24.4626 335.069L24.517 335.103L24.5428 335.119C24.5554 335.127 24.5677 335.134 37.0833 315.07L24.5677 335.134L26.8671 336.566L29.4309 337.442L37.0833 315.07C29.4309 337.442 29.4322 337.442 29.4322 337.442L29.4347 337.443L29.4433 337.446L30.0521 337.653C30.4538 337.79 31.0452 337.991 31.8119 338.251C33.345 338.771 35.5793 339.526 38.398 340.473C44.0343 342.368 52.0128 345.032 61.3982 348.117C80.1376 354.276 104.616 362.155 127.295 368.932C153.232 376.683 174.125 376.518 189.302 373.836C196.827 372.506 202.794 370.585 207.138 368.833C209.308 367.958 211.071 367.126 212.42 366.433C213.095 366.087 213.666 365.775 214.134 365.509C214.368 365.376 214.576 365.254 214.758 365.146C214.849 365.092 214.934 365.041 215.012 364.993L215.063 364.962L215.124 364.924L215.177 364.892L215.202 364.876C215.215 364.868 215.227 364.861 202.712 344.796L215.227 364.861L215.455 364.719L215.68 364.572L202.712 344.796C215.68 364.572 215.681 364.571 215.681 364.571L215.685 364.568L216.893 363.776C217.689 363.254 218.868 362.481 220.405 361.471C223.479 359.453 227.985 356.49 233.721 352.707C245.194 345.144 261.59 334.302 281.302 321.182C304.059 306.034 331.248 287.84 360.386 268.141C333.69 293.447 305.361 319.865 279.452 343.522C263.382 357.62 255.321 374.802 258.246 393.111C260.842 409.367 271.341 420.685 278.368 426.683L278.424 426.731L278.481 426.779C299.077 444.137 336.406 469.763 368.277 490.988C384.423 501.741 399.521 511.595 410.915 519.014C412.396 519.979 413.812 520.9 415.157 521.776C419.005 524.28 422.277 526.41 424.879 528.113C428.297 530.35 429.853 531.397 430.195 531.628C435.915 536.069 449.54 544.888 465.143 552.061C473.317 555.819 482.726 559.451 492.387 561.694C501.797 563.879 513.18 565.162 524.459 562.519C547.863 557.033 559.353 538.708 564.548 526.383C567.271 519.925 568.832 513.893 569.722 509.547C570.175 507.339 570.473 505.475 570.664 504.091C570.753 503.448 570.82 502.904 570.869 502.47L571.64 497.631C572.205 494.081 573.033 488.886 574.082 482.303C576.18 469.137 579.164 450.421 582.708 428.222C589.795 383.823 599.12 325.494 608.07 269.767L608.087 269.664L608.103 269.561C611.29 248.53 614.514 227.705 617.551 208.084C625.677 155.6 632.47 111.72 633.664 95.4969C635.074 79.2055 632.189 63.9045 622.265 52.2942C612.371 40.7193 599.141 37.1077 589.179 36.2445C579.241 35.3835 569.93 36.9622 563.768 38.4027C560.545 39.1562 557.832 39.9568 555.876 40.5868C554.892 40.9038 554.082 41.1829 553.477 41.399C553.174 41.5072 552.921 41.6 552.721 41.6745C552.621 41.7118 552.534 41.7445 552.461 41.7722L552.362 41.8102L552.32 41.8263L552.301 41.8336C552.292 41.8371 552.283 41.8404 560.835 63.884ZM569.422 85.9179L568.482 86.3022C567.623 86.6536 566.357 87.1711 564.734 87.8352C561.488 89.1633 556.812 91.0777 551.092 93.4215C539.652 98.1094 524.044 104.514 507.366 111.382C473.91 125.159 436.456 140.674 419.536 148.002L419.37 148.074L419.202 148.143C374.378 166.746 287.405 202.44 211.689 233.461C173.82 248.977 138.75 263.331 113.147 273.805C100.346 279.043 89.9106 283.311 82.676 286.269C79.0586 287.749 76.2413 288.901 74.3283 289.683L71.4089 290.876C71.4089 290.876 71.4074 290.877 70.6599 289.053L71.0312 291.03C65.2873 293.262 60.9587 295.311 57.7281 297.08C62.7814 298.771 69.0744 300.864 76.1867 303.202C94.7521 309.304 118.77 317.031 140.856 323.631C159.684 329.258 173.11 328.68 181.06 327.275C185.099 326.561 187.898 325.602 189.428 324.985C189.933 324.782 190.301 324.615 190.532 324.505L190.929 324.244C191.715 323.729 192.884 322.963 194.41 321.96C197.462 319.956 201.944 317.008 207.656 313.242C219.079 305.71 235.418 294.907 255.063 281.831C294.362 255.672 346.857 220.443 399.698 184.118L399.766 184.072L399.833 184.026C418.906 171.107 433.886 162.777 445.484 158.8C451.063 156.887 458.282 155.106 465.828 156.048C474.928 157.184 484.585 162.538 489.071 173.393C492.595 181.919 491.198 190.025 490.112 194.32C488.865 199.253 486.795 203.858 484.72 207.705C480.562 215.415 474.681 223.213 468.613 229.257L468.612 229.259C429.522 268.195 365.1 329.376 311.191 378.597L310.989 378.781L310.783 378.96C306.757 382.469 305.481 384.781 305.132 385.579C305.088 385.679 305.057 385.758 305.034 385.818C305.12 386.043 305.321 386.482 305.766 387.137C306.523 388.247 307.662 389.492 309.06 390.691C327.277 406.032 362.272 430.164 394.525 451.644C410.461 462.256 425.392 472.003 436.754 479.4C438.29 480.401 439.79 481.377 441.239 482.319C449.834 487.911 456.644 492.341 458.619 493.817L458.912 494.036L459.198 494.264C461.27 495.916 471.91 503.123 484.925 509.107C491.3 512.038 497.559 514.351 503.1 515.638C508.892 516.983 512.245 516.815 513.651 516.485C515.614 516.025 518.298 514.283 520.934 508.029C522.128 505.198 522.898 502.312 523.359 500.062C523.583 498.972 523.716 498.119 523.786 497.61C523.816 497.391 523.834 497.242 523.843 497.17C523.844 497.159 523.845 497.151 523.846 497.143L523.846 497.142L523.903 496.484L524.034 495.657L547.403 499.37C524.034 495.657 524.034 495.655 524.034 495.655L524.035 495.651L524.903 490.2C525.469 486.649 526.296 481.452 527.346 474.868C529.445 461.699 532.429 442.979 535.974 420.775C543.058 376.395 552.378 318.093 561.327 262.376C564.78 239.594 568.192 217.549 571.338 197.218C579.24 146.161 585.47 105.909 586.475 91.9173L586.489 91.7212L586.507 91.5254C586.892 87.1758 586.571 84.7201 586.277 83.5031C585.973 83.4483 585.582 83.394 585.09 83.3513C582.158 83.0973 578.32 83.5616 574.55 84.4429C572.807 84.8503 571.357 85.2804 570.394 85.5907C569.938 85.7373 569.607 85.8522 569.422 85.9179ZM587.187 83.7502C587.184 83.7519 587.15 83.739 587.09 83.7062C587.159 83.732 587.189 83.7484 587.187 83.7502ZM585.999 82.6313C585.95 82.5536 585.931 82.5102 585.933 82.5079C585.936 82.5056 585.96 82.5444 585.999 82.6313ZM560.835 63.884L552.283 41.8404L552.08 41.9192L551.878 42.0018L560.835 63.884ZM462.678 202.996C462.678 202.996 462.655 203.001 462.613 203.007C462.657 202.999 462.678 202.996 462.678 202.996Z"/>
	</symbol>

	<symbol viewBox="0 0 40 40" id="drop-down-arrow">
		<path fill-rule="evenodd" clip-rule="evenodd" d="M30.7517 14.1812C31.5239 14.8874 31.5773 16.0859 30.8711 16.8581L23.4477 24.9743C23.4477 24.9743 23.4477 24.9743 23.4477 24.9743C21.7238 26.8591 18.7659 26.8951 16.9967 25.0529L9.15901 16.8917C8.43418 16.137 8.45843 14.9376 9.21317 14.2127C9.96792 13.4879 11.1674 13.5121 11.8922 14.2669L19.7299 22.428C19.9826 22.6912 20.4052 22.686 20.6513 22.4169L28.0748 14.3005C28.7811 13.5284 29.9796 13.4749 30.7517 14.1812Z"/>
	</symbol>

	<symbol viewBox="0 0 17 17" id="check">
		<path d="M6.77206 10.6786L3.96694 7.87347L3.01172 8.82196L6.77206 12.5823L14.8443 4.51002L13.8958 3.56152L6.77206 10.6786Z"/>
	</symbol>

	<symbol viewBox="0 0 24 24" id="copy">
		<path d="M6.59961 11.3974C6.59961 8.67119 6.59961 7.3081 7.44314 6.46118C8.28667 5.61426 9.64432 5.61426 12.3596 5.61426H15.2396C17.9549 5.61426 19.3125 5.61426 20.1561 6.46118C20.9996 7.3081 20.9996 8.6712 20.9996 11.3974V16.2167C20.9996 18.9429 20.9996 20.306 20.1561 21.1529C19.3125 21.9998 17.9549 21.9998 15.2396 21.9998H12.3596C9.64432 21.9998 8.28667 21.9998 7.44314 21.1529C6.59961 20.306 6.59961 18.9429 6.59961 16.2167V11.3974Z"/>
		<path opacity="0.5" d="M4.17157 3.17157C3 4.34315 3 6.22876 3 10V12C3 15.7712 3 17.6569 4.17157 18.8284C4.78913 19.446 5.6051 19.738 6.79105 19.8761C6.59961 19.0353 6.59961 17.8796 6.59961 16.2167V11.3974C6.59961 8.6712 6.59961 7.3081 7.44314 6.46118C8.28667 5.61426 9.64432 5.61426 12.3596 5.61426H15.2396C16.8915 5.61426 18.0409 5.61426 18.8777 5.80494C18.7403 4.61146 18.4484 3.79154 17.8284 3.17157C16.6569 2 14.7712 2 11 2C7.22876 2 5.34315 2 4.17157 3.17157Z"/>
	</symbol>

	<symbol viewBox="0 0 24 24" id="alert">
		<path opacity="0.5" d="M16.1569 3.80211L16.8431 4.20846C18.8718 5.40987 19.8862 6.01057 20.4431 7C21 7.98943 21 9.19084 21 11.5937V12.4063C21 14.8092 21 16.0106 20.4431 17C19.8862 17.9894 18.8718 18.5901 16.8431 19.7915L16.1569 20.1979C14.1282 21.3993 13.1138 22 12 22C10.8862 22 9.8718 21.3993 7.84308 20.1979L7.15692 19.7915C5.1282 18.5901 4.11384 17.9894 3.55692 17C3 16.0106 3 14.8092 3 12.4063V11.5937C3 9.19084 3 7.98943 3.55692 7C4.11384 6.01057 5.1282 5.40987 7.15692 4.20846L7.84308 3.80211C9.8718 2.6007 10.8862 2 12 2C13.1138 2 14.1282 2.6007 16.1569 3.80211Z"/>
		<path d="M12 6.25C12.4142 6.25 12.75 6.58579 12.75 7V13C12.75 13.4142 12.4142 13.75 12 13.75C11.5858 13.75 11.25 13.4142 11.25 13V7C11.25 6.58579 11.5858 6.25 12 6.25Z"/>
		<path d="M12 17C12.5523 17 13 16.5523 13 16C13 15.4477 12.5523 15 12 15C11.4477 15 11 15.4477 11 16C11 16.5523 11.4477 17 12 17Z"/>
	</symbol>

	<symbol viewBox="0 0 24 24" id="alert-2">
		<path opacity="0.4" d="M21.76 15.92L15.36 4.4C14.5 2.85 13.31 2 12 2C10.69 2 9.49999 2.85 8.63999 4.4L2.23999 15.92C1.42999 17.39 1.33999 18.8 1.98999 19.91C2.63999 21.02 3.91999 21.63 5.59999 21.63H18.4C20.08 21.63 21.36 21.02 22.01 19.91C22.66 18.8 22.57 17.38 21.76 15.92Z"/>
		<path d="M12 14.75C11.59 14.75 11.25 14.41 11.25 14V9C11.25 8.59 11.59 8.25 12 8.25C12.41 8.25 12.75 8.59 12.75 9V14C12.75 14.41 12.41 14.75 12 14.75Z"/>
		<path d="M12 17.9996C11.94 17.9996 11.87 17.9896 11.8 17.9796C11.74 17.9696 11.68 17.9496 11.62 17.9196C11.56 17.8996 11.5 17.8696 11.44 17.8296C11.39 17.7896 11.34 17.7496 11.29 17.7096C11.11 17.5196 11 17.2596 11 16.9996C11 16.7396 11.11 16.4796 11.29 16.2896C11.34 16.2496 11.39 16.2096 11.44 16.1696C11.5 16.1296 11.56 16.0996 11.62 16.0796C11.68 16.0496 11.74 16.0296 11.8 16.0196C11.93 15.9896 12.07 15.9896 12.19 16.0196C12.26 16.0296 12.32 16.0496 12.38 16.0796C12.44 16.0996 12.5 16.1296 12.56 16.1696C12.61 16.2096 12.66 16.2496 12.71 16.2896C12.89 16.4796 13 16.7396 13 16.9996C13 17.2596 12.89 17.5196 12.71 17.7096C12.66 17.7496 12.61 17.7896 12.56 17.8296C12.5 17.8696 12.44 17.8996 12.38 17.9196C12.32 17.9496 12.26 17.9696 12.19 17.9796C12.13 17.9896 12.06 17.9996 12 17.9996Z"/>
	</symbol>

	<symbol viewBox="0 0 32 32" id="upload">
		<path opacity="0.5" d="M2.66797 16.0003C2.66797 9.71493 2.66797 6.57223 4.62059 4.61961C6.57321 2.66699 9.71591 2.66699 16.0013 2.66699C22.2867 2.66699 25.4294 2.66699 27.382 4.61961C29.3346 6.57223 29.3346 9.71493 29.3346 16.0003C29.3346 22.2857 29.3346 25.4284 27.382 27.381C25.4294 29.3337 22.2867 29.3337 16.0013 29.3337C9.71591 29.3337 6.57321 29.3337 4.62059 27.381C2.66797 25.4284 2.66797 22.2857 2.66797 16.0003Z"/>
		<path fill-rule="evenodd" clip-rule="evenodd" d="M5.66667 17.333C5.66667 16.7807 6.11438 16.333 6.66667 16.333H14.6667C15.219 16.333 15.6667 16.7807 15.6667 17.333V25.333C15.6667 25.8853 15.219 26.333 14.6667 26.333C14.1144 26.333 13.6667 25.8853 13.6667 25.333V19.7472L4.70711 28.7068C4.31658 29.0973 3.68342 29.0973 3.29289 28.7068C2.90237 28.3163 2.90237 27.6831 3.29289 27.2926L12.2525 18.333H6.66667C6.11438 18.333 5.66667 17.8853 5.66667 17.333Z"/>
	</symbol>

	<symbol viewBox="0 0 20 20" id="edit">
		<path d="M17.5 18.333H2.5C2.15833 18.333 1.875 18.0497 1.875 17.708C1.875 17.3663 2.15833 17.083 2.5 17.083H17.5C17.8417 17.083 18.125 17.3663 18.125 17.708C18.125 18.0497 17.8417 18.333 17.5 18.333Z"/>
		<path d="M15.8495 2.90005C14.2328 1.28338 12.6495 1.24172 10.9912 2.90005L9.98283 3.90838C9.89949 3.99172 9.86616 4.12505 9.89949 4.24172C10.5328 6.45005 12.2995 8.21672 14.5078 8.85005C14.5412 8.85838 14.5745 8.86672 14.6078 8.86672C14.6995 8.86672 14.7828 8.83338 14.8495 8.76672L15.8495 7.75838C16.6745 6.94172 17.0745 6.15005 17.0745 5.35005C17.0828 4.52505 16.6828 3.72505 15.8495 2.90005Z"/>
		<path d="M13.007 9.60866C12.7653 9.49199 12.532 9.37533 12.307 9.24199C12.1236 9.13366 11.9486 9.01699 11.7736 8.89199C11.632 8.80033 11.4653 8.66699 11.307 8.53366C11.2903 8.52533 11.232 8.47533 11.1653 8.40866C10.8903 8.17533 10.582 7.87533 10.307 7.54199C10.282 7.52533 10.2403 7.46699 10.182 7.39199C10.0986 7.29199 9.95697 7.12532 9.83197 6.93366C9.73197 6.80866 9.6153 6.62533 9.50697 6.44199C9.37364 6.21699 9.25697 5.99199 9.1403 5.75866C8.98734 5.43088 8.55713 5.3335 8.30135 5.58928L3.6153 10.2753C3.50697 10.3837 3.40697 10.592 3.38197 10.7337L2.93197 13.9253C2.84864 14.492 3.00697 15.0253 3.35697 15.3837C3.65697 15.6753 4.07364 15.8337 4.52364 15.8337C4.62364 15.8337 4.72364 15.8253 4.82364 15.8087L8.02364 15.3587C8.17364 15.3337 8.38197 15.2337 8.48197 15.1253L13.1758 10.4315C13.4264 10.1809 13.3322 9.7496 13.007 9.60866Z"/>
	</symbol>

	<symbol viewBox="0 0 24 24" id="personal-data">
		<path d="M1.75 10.0004V14.0004C1.75 16.8288 1.75 18.243 2.62868 19.1217C2.84602 19.339 3.09612 19.5026 3.39228 19.6257C3.38556 19.5812 3.37922 19.5366 3.37321 19.492C3.24986 18.5745 3.24992 17.4288 3.25 16.099L3.25 8.0003L3.25 7.90155V7.90155C3.24992 6.57182 3.24986 5.4261 3.37321 4.50861C3.37921 4.46399 3.38555 4.41944 3.39226 4.375C3.09611 4.49812 2.84601 4.6617 2.62868 4.87903C1.75 5.75771 1.75 7.17192 1.75 10.0004Z"/>
		<path d="M21.75 10.0004V14.0004C21.75 16.8288 21.75 18.243 20.8713 19.1217C20.654 19.339 20.4039 19.5026 20.1077 19.6257C20.1144 19.5812 20.1208 19.5366 20.1268 19.492C20.2501 18.5745 20.2501 17.4288 20.25 16.099V7.90156C20.2501 6.57183 20.2501 5.4261 20.1268 4.50861C20.1208 4.46399 20.1144 4.41944 20.1077 4.375C20.4039 4.49812 20.654 4.6617 20.8713 4.87903C21.75 5.75771 21.75 7.17192 21.75 10.0004Z"/>
		<path fill-rule="evenodd" clip-rule="evenodd" d="M5.62868 2.87868C4.75 3.75736 4.75 5.17157 4.75 8V16C4.75 18.8284 4.75 20.2426 5.62868 21.1213C6.50736 22 7.92157 22 10.75 22H12.75C15.5784 22 16.9926 22 17.8713 21.1213C18.75 20.2426 18.75 18.8284 18.75 16V8C18.75 5.17157 18.75 3.75736 17.8713 2.87868C16.9926 2 15.5784 2 12.75 2H10.75C7.92157 2 6.50736 2 5.62868 2.87868ZM8 17C8 16.5858 8.33579 16.25 8.75 16.25H11.75C12.1642 16.25 12.5 16.5858 12.5 17C12.5 17.4142 12.1642 17.75 11.75 17.75H8.75C8.33579 17.75 8 17.4142 8 17ZM8.75 12.25C8.33579 12.25 8 12.5858 8 13C8 13.4142 8.33579 13.75 8.75 13.75H14.75C15.1642 13.75 15.5 13.4142 15.5 13C15.5 12.5858 15.1642 12.25 14.75 12.25H8.75ZM8 9C8 8.58579 8.33579 8.25 8.75 8.25H14.75C15.1642 8.25 15.5 8.58579 15.5 9C15.5 9.41421 15.1642 9.75 14.75 9.75H8.75C8.33579 9.75 8 9.41421 8 9Z"/>
	</symbol>

	<symbol viewBox="0 0 24 24" id="security">
		<path fill-rule="evenodd" clip-rule="evenodd" d="M3.37752 5.08241C3 5.62028 3 7.21907 3 10.4167V11.9914C3 17.6294 7.23896 20.3655 9.89856 21.5273C10.62 21.8424 10.9807 22 12 22C13.0193 22 13.38 21.8424 14.1014 21.5273C16.761 20.3655 21 17.6294 21 11.9914V10.4167C21 7.21907 21 5.62028 20.6225 5.08241C20.245 4.54454 18.7417 4.02996 15.7351 3.00079L15.1623 2.80472C13.595 2.26824 12.8114 2 12 2C11.1886 2 10.405 2.26824 8.83772 2.80472L8.26491 3.00079C5.25832 4.02996 3.75503 4.54454 3.37752 5.08241ZM15.0595 10.4995C15.3353 10.1905 15.3085 9.71642 14.9995 9.44055C14.6905 9.16467 14.2164 9.19151 13.9405 9.50049L10.9286 12.8739L10.0595 11.9005C9.78358 11.5915 9.30947 11.5647 9.00049 11.8405C8.69151 12.1164 8.66467 12.5905 8.94055 12.8995L10.3691 14.4995C10.5114 14.6589 10.7149 14.75 10.9286 14.75C11.1422 14.75 11.3457 14.6589 11.488 14.4995L15.0595 10.4995Z"/>
	</symbol>

	<symbol viewBox="0 0 24 24" id="lock">
		<path fill-rule="evenodd" clip-rule="evenodd" d="M5.25 10.0546V8C5.25 4.27208 8.27208 1.25 12 1.25C15.7279 1.25 18.75 4.27208 18.75 8V10.0546C19.8648 10.1379 20.5907 10.348 21.1213 10.8787C22 11.7574 22 13.1716 22 16C22 18.8284 22 20.2426 21.1213 21.1213C20.2426 22 18.8284 22 16 22H8C5.17157 22 3.75736 22 2.87868 21.1213C2 20.2426 2 18.8284 2 16C2 13.1716 2 11.7574 2.87868 10.8787C3.40931 10.348 4.13525 10.1379 5.25 10.0546ZM6.75 8C6.75 5.10051 9.10051 2.75 12 2.75C14.8995 2.75 17.25 5.10051 17.25 8V10.0036C16.867 10 16.4515 10 16 10H8C7.54849 10 7.13301 10 6.75 10.0036V8ZM8 17C8.55228 17 9 16.5523 9 16C9 15.4477 8.55228 15 8 15C7.44772 15 7 15.4477 7 16C7 16.5523 7.44772 17 8 17ZM12 17C12.5523 17 13 16.5523 13 16C13 15.4477 12.5523 15 12 15C11.4477 15 11 15.4477 11 16C11 16.5523 11.4477 17 12 17ZM17 16C17 16.5523 16.5523 17 16 17C15.4477 17 15 16.5523 15 16C15 15.4477 15.4477 15 16 15C16.5523 15 17 15.4477 17 16Z"/>
	</symbol>

	<symbol viewBox="0 0 24 24" id="settings">
		<path fill-rule="evenodd" clip-rule="evenodd" d="M13.877 1.82196C13.8776 1.82234 13.8782 1.82271 13.8789 1.82309L19.3754 5.00107C19.3905 5.00977 19.4052 5.01899 19.4196 5.02872L19.4439 5.04509C19.9233 5.36867 20.3182 5.63522 20.622 5.87591C20.9359 6.12459 21.2064 6.38617 21.3993 6.72002C21.5966 7.06136 21.6779 7.41689 21.7152 7.79602C21.75 8.15079 21.75 8.57778 21.75 9.07594V14.9248C21.75 15.4229 21.75 15.8499 21.7152 16.2047C21.6779 16.5838 21.5966 16.9393 21.3993 17.2807C21.2064 17.6145 20.9359 17.8761 20.622 18.1248C20.3182 18.3655 19.9233 18.632 19.4439 18.9556L19.4196 18.972C19.4052 18.9817 19.3905 18.9909 19.3754 18.9996L13.8789 22.1776C13.8783 22.178 13.8777 22.1783 13.8771 22.1787C13.3243 22.5017 12.643 22.6404 12.0038 22.6404C11.3633 22.6404 10.6806 22.5012 10.1245 22.1796L4.6246 18.9996C4.60955 18.9909 4.59481 18.9817 4.5804 18.972L4.55605 18.9556C4.07673 18.632 3.68174 18.3654 3.37782 18.1245C3.06369 17.8754 2.79314 17.6134 2.60021 17.2786C2.4031 16.9366 2.32203 16.5803 2.28482 16.2001C2.24997 15.8441 2.24998 15.4154 2.25 14.9147V9.07594C2.24998 8.57778 2.24997 8.15079 2.28485 7.79602C2.32213 7.41689 2.40337 7.06136 2.60068 6.72002C2.79365 6.38617 3.06413 6.12459 3.37802 5.87591C3.68185 5.63522 4.07675 5.36866 4.55615 5.04508L4.5804 5.02872C4.59481 5.01899 4.60955 5.00977 4.6246 5.00107L10.1245 1.8211C10.1246 1.82109 10.1245 1.82112 10.1245 1.8211C10.6806 1.49952 11.3633 1.36035 12.0038 1.36035C12.643 1.36035 13.3242 1.49901 13.877 1.82196ZM12.0038 2.86035C11.5567 2.86035 11.1494 2.96121 10.8755 3.1196L5.39799 6.28658C4.90011 6.62267 4.55944 6.85364 4.30948 7.05166C4.06088 7.24861 3.95635 7.37203 3.89933 7.47068C3.84664 7.56184 3.80287 7.68631 3.77765 7.94281C3.75084 8.21552 3.75 8.56828 3.75 9.11035V14.8804C3.75 15.4249 3.75083 15.7797 3.77768 16.054C3.80297 16.3123 3.8469 16.4378 3.8998 16.5296C3.95687 16.6286 4.06131 16.7521 4.30968 16.949C4.55953 17.1471 4.90008 17.378 5.39799 17.7141L10.8754 20.8811C11.1493 21.0395 11.5567 21.1404 12.0038 21.1404C12.4513 21.1404 12.8542 21.0393 13.1211 20.8831L13.1246 20.8811L18.602 17.7141C19.0999 17.378 19.4406 17.1471 19.6905 16.949C19.9391 16.7521 20.0436 16.6287 20.1007 16.53C20.1534 16.4389 20.1971 16.3144 20.2224 16.0579C20.2492 15.7852 20.25 15.4324 20.25 14.8904V9.11035C20.25 8.56828 20.2492 8.21552 20.2224 7.94281C20.1971 7.68631 20.1534 7.56184 20.1007 7.47068C20.0436 7.37203 19.9391 7.24861 19.6905 7.05166C19.4406 6.85364 19.0999 6.62267 18.602 6.28658L13.1211 3.11762C12.8542 2.96138 12.4513 2.86035 12.0038 2.86035Z"/>
		<path fill-rule="evenodd" clip-rule="evenodd" d="M12 9.75C10.7574 9.75 9.75 10.7574 9.75 12C9.75 13.2426 10.7574 14.25 12 14.25C13.2426 14.25 14.25 13.2426 14.25 12C14.25 10.7574 13.2426 9.75 12 9.75ZM8.25 12C8.25 9.92893 9.92893 8.25 12 8.25C14.0711 8.25 15.75 9.92893 15.75 12C15.75 14.0711 14.0711 15.75 12 15.75C9.92893 15.75 8.25 14.0711 8.25 12Z"/>
	</symbol>

	<symbol viewBox="0 0 30 30" id="reload">
		<path d="M20.2375 2.5H9.7625C5.2125 2.5 2.5 5.2125 2.5 9.7625V20.225C2.5 24.7875 5.2125 27.5 9.7625 27.5H20.225C24.775 27.5 27.4875 24.7875 27.4875 20.2375V9.7625C27.5 5.2125 24.7875 2.5 20.2375 2.5ZM15 22.8125C12.7625 22.8125 11.0125 21.7 9.825 20.6V21.4875C9.825 22 9.4 22.425 8.8875 22.425C8.375 22.425 7.95 22 7.95 21.4875V18.05C7.95 17.5375 8.375 17.1125 8.8875 17.1125H11.9875C12.5 17.1125 12.925 17.5375 12.925 18.05C12.925 18.5625 12.5 18.9875 11.9875 18.9875H10.8625C11.7875 19.9125 13.225 20.9375 15 20.9375C18.275 20.9375 20.9375 18.275 20.9375 15C20.9375 14.4875 21.3625 14.0625 21.875 14.0625C22.3875 14.0625 22.8125 14.4875 22.8125 15C22.8125 19.3125 19.3125 22.8125 15 22.8125ZM22.8125 11.925C22.8125 11.9625 22.8125 12 22.8125 12.025C22.8 12.1625 22.7625 12.2875 22.7 12.4C22.6375 12.5125 22.55 12.6125 22.4375 12.7C22.35 12.7625 22.25 12.8125 22.1375 12.85C22.05 12.875 21.9625 12.8875 21.875 12.8875H18.8375C18.325 12.8875 17.9 12.4625 17.9 11.95C17.9 11.4375 18.325 11.0125 18.8375 11.0125H19.875C18.875 10.0875 17.2625 9.0625 15.025 9.0625C11.75 9.0625 9.0875 11.725 9.0875 15C9.0875 15.5125 8.6625 15.9375 8.15 15.9375C7.6375 15.9375 7.1875 15.5125 7.1875 15C7.1875 10.6875 10.6875 7.1875 15 7.1875C17.6875 7.1875 19.6625 8.35 20.9375 9.4625V8.5125C20.9375 8 21.3625 7.575 21.875 7.575C22.3875 7.575 22.8125 8 22.8125 8.5125V11.925Z"/>	
	</symbol>
		
</svg>