<svg width="101" height="40" viewBox="0 0 101 40" fill="none" xmlns="http://www.w3.org/2000/svg">
<path d="M24.7987 29.4031C22.38 25.7788 19.4007 22.5618 15.9724 19.8725C15.7552 19.7057 15.4847 19.6238 15.2114 19.6419C14.9382 19.6601 14.6809 19.7771 14.4877 19.9711C14.2947 20.1673 14.1817 20.4284 14.1708 20.7034C14.1599 20.9784 14.2517 21.2476 14.4285 21.4586C18.0214 25.7701 20.6255 30.8168 22.0576 36.2433C22.1225 36.4796 22.2627 36.6883 22.4569 36.8378C22.6511 36.9872 22.8887 37.0693 23.1337 37.0716H23.2521C23.517 37.0441 23.7632 36.9223 23.9458 36.7283C24.1284 36.5344 24.2351 36.2813 24.2465 36.0151C24.338 34.0775 24.5773 32.1496 24.9621 30.2483C24.9928 30.1037 24.9942 29.9543 24.9661 29.8091C24.9381 29.664 24.8811 29.5259 24.7987 29.4031Z" fill="#00939D"/>
<path d="M48.4977 1.24226C48.4074 1.04987 48.2645 0.88695 48.0855 0.772298C47.9066 0.657646 47.6988 0.595939 47.4863 0.594301C47.3443 0.59444 47.2036 0.622188 47.0722 0.676001C44.6007 1.66774 42.2354 2.90606 40.0122 4.37219C39.522 4.69335 39.0487 5.02015 38.6036 5.34413C33.7136 8.85952 29.6819 13.4354 26.8103 18.7292C23.9387 24.023 22.3016 29.8978 22.0215 35.9138V35.9617C22.0227 36.0569 22.0359 36.1515 22.0609 36.2434C22.168 36.6434 22.2666 37.0435 22.3595 37.4463C22.3937 37.5924 22.4566 37.7302 22.5446 37.8516C22.6327 37.973 22.7441 38.0756 22.8723 38.1534L22.9483 38.1957C23.0242 38.2416 23.1056 38.2776 23.1906 38.3028L25.7261 39.0944C25.8332 39.1259 25.9442 39.142 26.0557 39.1423C26.2032 39.1427 26.3492 39.1137 26.4853 39.057C26.6214 39.0004 26.7449 38.9171 26.8485 38.8122C26.9521 38.7073 27.0337 38.5828 27.0887 38.446C27.1436 38.3092 27.1708 38.1628 27.1685 38.0154V37.7928C27.1685 37.5618 27.1685 37.328 27.1685 37.0914C27.1685 36.0659 27.208 35.0348 27.2897 34.0206C27.6769 28.9524 29.064 24.0111 31.3709 19.4819C33.6779 14.9526 36.859 10.9251 40.7306 7.63171C41.0997 7.31337 41.4941 6.98939 41.8941 6.67104L41.9279 6.6485C43.8278 5.14671 45.8641 3.82624 48.0103 2.7044C48.2621 2.56816 48.4525 2.34123 48.543 2.06968C48.6336 1.79812 48.6174 1.5023 48.4977 1.24226Z" fill="#69DBC8"/>
<path d="M3.33718 30.4312C3.10404 30.4309 2.8755 30.3663 2.67669 30.2445C2.47788 30.1228 2.3165 29.9485 2.21029 29.741C0.346177 26.1034 -0.363673 21.9836 0.175553 17.9319C0.71478 13.8802 2.47741 10.0895 5.22802 7.06608C7.97863 4.04265 11.5863 1.93045 15.5691 1.01159C19.5519 0.0927284 23.7202 0.410962 27.5174 1.92378C27.8297 2.04856 28.0796 2.29229 28.2122 2.60137C28.3449 2.91044 28.3493 3.25954 28.2245 3.57185C28.0997 3.88417 27.856 4.13413 27.5469 4.26674C27.2378 4.39935 26.8887 4.40375 26.5764 4.27898C23.915 3.21782 21.0342 2.82446 18.1858 3.13326C15.3373 3.44206 12.6078 4.44361 10.2356 6.05045C7.86342 7.65728 5.92076 9.82051 4.57731 12.3512C3.23386 14.8818 2.53049 17.703 2.52864 20.5681C2.51984 23.3566 3.18376 26.106 4.46407 28.5831C4.56356 28.7764 4.61171 28.9919 4.60388 29.2091C4.59605 29.4263 4.53251 29.6379 4.41935 29.8235C4.3062 30.009 4.14723 30.1624 3.95773 30.2688C3.76822 30.3752 3.55453 30.4312 3.33718 30.4312Z" fill="#69DBC8"/>
<path d="M54.7037 21.4892C54.7638 21.4849 54.824 21.4849 54.884 21.4892H54.5234C54.5835 21.4849 54.6437 21.4849 54.7037 21.4892Z" fill="#00A376"/>
<path d="M42.7725 21.5006H42.333C42.4786 21.478 42.6269 21.478 42.7725 21.5006Z" fill="#00A376"/>
<path d="M90.3895 32.3752C90.3895 32.2654 90.3755 32.1583 90.3642 32.0512C90.2516 30.56 89.6585 29.1454 88.6739 28.0198C87.5188 26.7051 85.9966 26.0478 84.1071 26.0478C83.2391 26.0245 82.376 26.1861 81.5751 26.5217C80.7742 26.8573 80.0537 27.3593 79.4615 27.9945C78.2427 29.2723 77.5811 30.9817 77.6219 32.7471C77.6219 34.7417 78.253 36.3606 79.5151 37.604C80.7772 38.8473 82.3792 39.469 84.3212 39.469C86.0228 39.469 87.454 39.0877 88.6147 38.3252C88.8446 38.1717 89.0101 37.9391 89.0797 37.6716C89.1493 37.4041 89.1182 37.1204 88.9922 36.8743L88.8119 36.6151C88.7064 36.5006 88.5784 36.4092 88.4358 36.3467C88.2933 36.2841 88.1393 36.2518 87.9836 36.2517C87.8365 36.2515 87.6908 36.2813 87.5554 36.3391C87.4596 36.401 87.361 36.4602 87.2568 36.5194C86.4418 36.9527 85.5344 37.1836 84.6114 37.1927C83.5728 37.2383 82.5572 36.8776 81.7801 36.1869C81.0651 35.5335 80.6209 34.6359 80.5349 33.6711H89.0345C89.3842 33.6729 89.721 33.5387 89.9738 33.297C90.2266 33.0552 90.3757 32.7247 90.3895 32.3752ZM80.5124 31.7188C80.5761 30.8346 80.9399 29.9988 81.5435 29.3495C82.1595 28.6715 83.015 28.3316 84.11 28.3297C85.2594 28.3297 86.1374 28.6743 86.7441 29.3636C87.3359 30.0088 87.6785 30.8438 87.7104 31.7188H80.5124Z" fill="#00939D"/>
<path d="M76.7419 27.7491C76.743 27.8438 76.7336 27.9382 76.7138 28.0308V28.0618L76.649 28.2703C76.6478 28.2759 76.6478 28.2816 76.649 28.2872L73.7867 37.5023C73.7867 37.5023 73.6402 37.9756 73.6374 37.9784C73.4805 38.3188 73.2321 38.6089 72.92 38.8163C72.6079 39.0238 72.2443 39.1404 71.8697 39.1533C71.4952 39.1661 71.1244 39.0747 70.7988 38.8891C70.4732 38.7036 70.2055 38.4312 70.0257 38.1024L69.8003 37.3896L67.3944 29.7831L64.9547 37.4995L64.7885 37.9643C64.6303 38.3041 64.381 38.5934 64.0682 38.7999C63.7554 39.0065 63.3914 39.1222 63.0168 39.1341C62.6421 39.1461 62.2715 39.0539 61.9462 38.8678C61.6209 38.6816 61.3535 38.4089 61.174 38.0798L60.9486 37.3586L58.1314 28.2816L58.0469 27.9998C58.0266 27.9073 58.0172 27.8128 58.0187 27.7181C58.0287 27.4017 58.1475 27.0985 58.3552 26.8595C58.5628 26.6206 58.8465 26.4607 59.1584 26.4067C59.4703 26.3527 59.7913 26.408 60.0672 26.5633C60.343 26.7186 60.5568 26.9643 60.6725 27.2589L60.7458 27.5125L62.9573 35.1189L63.1207 35.6824L63.2926 35.1556L65.7154 27.7547L65.8506 27.3462C65.9715 27.0931 66.1535 26.874 66.3803 26.7087C66.607 26.5435 66.8713 26.4373 67.1493 26.3997H67.6057C67.8837 26.4373 68.148 26.5435 68.3748 26.7087C68.6015 26.874 68.7835 27.0931 68.9044 27.3462L69.0397 27.7547L71.4681 35.1471L71.6428 35.6767L71.8034 35.1133L74.0093 27.5322L74.0966 27.2279C74.2195 26.9348 74.4402 26.6934 74.7211 26.5447C75.002 26.396 75.3258 26.3492 75.6373 26.4123C75.9488 26.4754 76.2288 26.6445 76.4297 26.8908C76.6306 27.1371 76.7399 27.4454 76.7391 27.7632L76.7419 27.7491Z" fill="#00939D"/>
<path d="M60.7461 27.4987L60.6729 27.2451C60.7074 27.3264 60.732 27.4115 60.7461 27.4987Z" fill="#00939D"/>
<path d="M74.0127 27.5181C74.0273 27.4131 74.0567 27.3106 74.1 27.2138L74.0127 27.5181Z" fill="#00939D"/>
<path d="M65.854 27.3181L65.7188 27.7266C65.7459 27.5852 65.7913 27.4479 65.854 27.3181Z" fill="#00939D"/>
<path d="M67.6067 26.3712H67.1475C67.223 26.3599 67.2993 26.3542 67.3757 26.3543C67.453 26.3542 67.5302 26.3599 67.6067 26.3712Z" fill="#00939D"/>
<path d="M69.0464 27.7266L68.9111 27.3181C68.9738 27.4479 69.0192 27.5852 69.0464 27.7266Z" fill="#00939D"/>
<path d="M56.2643 22.8809V32.1777C56.2643 34.4315 55.6164 36.2157 54.3204 37.5304C53.0245 38.8451 51.1314 39.5025 48.6409 39.5025C46.1355 39.5025 44.2348 38.8451 42.9389 37.5304C41.643 36.2157 40.9941 34.4418 40.9922 32.2087V22.8414C41.0392 22.5024 41.1957 22.188 41.4377 21.946C41.6797 21.7039 41.9941 21.5475 42.3332 21.5005H42.7727C43.1149 21.5484 43.4319 21.7076 43.6748 21.9535C43.9176 22.1994 44.0728 22.5183 44.1165 22.8612V32.0904C44.1165 33.5178 44.509 34.6447 45.2941 35.471C46.0773 36.3162 47.1957 36.7162 48.6409 36.7162C50.0862 36.7162 51.199 36.3021 51.9765 35.471C52.7541 34.64 53.1429 33.499 53.1429 32.0904V22.8809C53.1832 22.5287 53.3416 22.2005 53.5923 21.9499C53.8429 21.6992 54.1711 21.5408 54.5233 21.5005H54.8839C55.2363 21.5403 55.5647 21.6985 55.8155 21.9493C56.0662 22.2001 56.2245 22.5285 56.2643 22.8809Z" fill="#00939D"/>
<path d="M93.8058 21.4866C93.4529 21.4898 93.1142 21.6253 92.8564 21.8663C92.5987 22.1073 92.4409 22.4363 92.4141 22.7881V37.818C92.4414 38.168 92.5997 38.4948 92.8574 38.7332C93.1151 38.9716 93.4533 39.104 93.8044 39.104C94.1554 39.104 94.4936 38.9716 94.7513 38.7332C95.009 38.4948 95.1673 38.168 95.1947 37.818V22.7881C95.1718 22.4353 95.0155 22.1045 94.7575 21.8628C94.4996 21.621 94.1593 21.4865 93.8058 21.4866Z" fill="#00939D"/>
<path d="M99.4415 21.4866C99.0887 21.4898 98.7499 21.6253 98.4922 21.8663C98.2345 22.1073 98.0766 22.4363 98.0498 22.7881V37.818C98.0771 38.168 98.2354 38.4948 98.4932 38.7332C98.7509 38.9716 99.089 39.104 99.4401 39.104C99.7912 39.104 100.129 38.9716 100.387 38.7332C100.645 38.4948 100.803 38.168 100.83 37.818V22.7881C100.807 22.4353 100.651 22.1045 100.393 21.8628C100.135 21.621 99.795 21.4865 99.4415 21.4866Z" fill="#00939D"/>
</svg>
