<svg width="180" height="52" fill="none" xmlns="http://www.w3.org/2000/svg"><path d="M179 46.003c0 2.771-2.291 5.016-5.126 5.016H6.132C3.3 51.019 1 48.774 1 46.003v-40C1 3.234 3.3.982 6.132.982h167.741c2.836 0 5.126 2.253 5.126 5.023l.001 40z" fill="#000"/><path d="M173.333 1.042c3.087 0 5.599 2.449 5.599 5.458v39c0 3.01-2.512 5.458-5.599 5.458H6.667c-3.087 0-5.599-2.448-5.599-5.458v-39c0-3.01 2.512-5.458 5.599-5.458h166.666zm0-1.042H6.667C3.002 0 0 2.927 0 6.5v39C0 49.073 3.002 52 6.667 52h166.666c3.665 0 6.667-2.927 6.667-6.5v-39c0-3.573-3.002-6.5-6.667-6.5z" fill="#A6A6A6"/><path d="M40.17 25.72c-.038-4.19 3.52-6.23 3.682-6.324-2.015-2.864-5.137-3.255-6.235-3.287-2.622-.269-5.166 1.53-6.502 1.53-1.363 0-3.42-1.503-5.638-1.46-2.853.044-5.523 1.654-6.986 4.155-3.022 5.1-.768 12.595 2.126 16.717 1.448 2.02 3.14 4.273 5.355 4.194 2.166-.087 2.976-1.347 5.59-1.347 2.591 0 3.351 1.347 5.61 1.296 2.325-.036 3.79-2.028 5.187-4.065 1.673-2.314 2.345-4.593 2.371-4.71-.054-.018-4.515-1.678-4.56-6.7zm-4.266-12.322c1.165-1.421 1.962-3.354 1.741-5.316-1.687.073-3.796 1.138-5.01 2.527-1.075 1.225-2.035 3.232-1.787 5.12 1.895.137 3.84-.932 5.056-2.331zm29.496-.386c0 1.53-.47 2.681-1.41 3.455-.871.714-2.108 1.071-3.711 1.071a17.64 17.64 0 01-2.044-.101v-8.36a15.46 15.46 0 012.407-.177c1.526 0 2.677.323 3.453.97.87.733 1.305 1.78 1.305 3.142zm-1.473.037c0-.992-.27-1.752-.808-2.282-.539-.53-1.325-.795-2.361-.795-.44 0-.815.029-1.126.089v6.355c.172.026.487.038.944.038 1.07 0 1.895-.29 2.476-.87.581-.58.875-1.425.875-2.535zm9.285 1.299c0 .942-.276 1.715-.828 2.32-.579.623-1.345.934-2.302.934-.923 0-1.658-.298-2.206-.896-.547-.597-.82-1.35-.82-2.257 0-.949.282-1.727.847-2.332.565-.604 1.325-.907 2.282-.907.923 0 1.665.297 2.226.894.533.58.801 1.329.801 2.244zm-1.45.044c0-.565-.124-1.05-.374-1.455-.293-.488-.71-.733-1.253-.733-.562 0-.988.245-1.282.733-.25.405-.374.897-.374 1.48 0 .565.125 1.05.374 1.454.303.49.725.734 1.269.734.533 0 .951-.249 1.253-.747.258-.412.388-.9.388-1.466zm11.925-3.057l-1.967 6.128h-1.28l-.815-2.661a19.48 19.48 0 01-.505-1.98h-.025c-.122.673-.29 1.332-.506 1.98l-.865 2.66H76.43l-1.849-6.127h1.436l.71 2.913c.173.689.314 1.346.427 1.967h.026c.104-.512.276-1.165.518-1.954l.892-2.925h1.14l.854 2.863c.206.698.374 1.37.504 2.017h.038c.095-.63.238-1.302.427-2.017l.763-2.863h1.372v-.001zm7.243 6.128h-1.397v-3.51c0-1.082-.421-1.623-1.266-1.623-.415 0-.75.149-1.01.446a1.558 1.558 0 00-.388 1.05v3.635h-1.397v-4.375c0-.539-.017-1.122-.05-1.754h1.227l.066.958h.038a1.99 1.99 0 01.724-.74 2.407 2.407 0 011.267-.344c.587 0 1.075.184 1.463.555.482.454.724 1.13.724 2.03v3.672zm3.854 0h-1.396v-8.94h1.396v8.94zm8.227-3.115c0 .942-.276 1.715-.828 2.32-.579.623-1.347.934-2.303.934-.924 0-1.658-.298-2.205-.896-.547-.597-.82-1.35-.82-2.257 0-.949.281-1.727.847-2.332.565-.604 1.325-.907 2.281-.907.924 0 1.664.297 2.227.894.533.58.801 1.329.801 2.244zm-1.451.044c0-.565-.125-1.05-.374-1.455-.292-.488-.711-.733-1.252-.733-.563 0-.99.245-1.282.733-.25.405-.374.897-.374 1.48 0 .565.125 1.05.374 1.454.303.49.724.734 1.268.734.534 0 .951-.249 1.252-.747.26-.412.388-.9.388-1.466zm8.214 3.071h-1.255l-.104-.706h-.039c-.429.563-1.041.845-1.836.845-.593 0-1.073-.186-1.434-.555-.328-.336-.492-.753-.492-1.248 0-.75.32-1.32.964-1.715.642-.395 1.546-.589 2.71-.58v-.114c0-.808-.434-1.21-1.305-1.21-.62 0-1.167.152-1.639.453l-.284-.894c.584-.353 1.306-.53 2.156-.53 1.643 0 2.467.846 2.467 2.536v2.257c0 .612.031 1.1.091 1.46zm-1.451-2.106v-.945c-1.541-.026-2.312.386-2.312 1.235 0 .32.088.559.268.719.18.16.409.239.683.239.306 0 .593-.095.854-.284a1.157 1.157 0 00.507-.964zm9.39 2.106h-1.24l-.065-.984h-.039c-.396.748-1.07 1.123-2.018 1.123-.758 0-1.388-.29-1.888-.87-.5-.58-.75-1.332-.75-2.257 0-.992.271-1.795.815-2.409.527-.572 1.172-.857 1.94-.857.844 0 1.435.276 1.771.832h.026V8.523h1.399v7.289c0 .597.016 1.146.049 1.65zm-1.448-2.585v-1.021c0-.177-.013-.32-.038-.43a1.544 1.544 0 00-.506-.825 1.393 1.393 0 00-.934-.334c-.522 0-.93.201-1.23.606-.297.404-.448.92-.448 1.55 0 .607.143 1.098.43 1.476.302.403.71.605 1.221.605.459 0 .825-.168 1.104-.505.269-.31.401-.685.401-1.122zm13.399-.53c0 .942-.276 1.715-.828 2.32-.578.623-1.344.934-2.302.934-.922 0-1.656-.298-2.206-.896-.546-.597-.82-1.35-.82-2.257 0-.949.282-1.727.847-2.332.565-.604 1.325-.907 2.284-.907.921 0 1.664.297 2.224.894.533.58.801 1.329.801 2.244zm-1.448.044c0-.565-.125-1.05-.374-1.455-.295-.488-.711-.733-1.255-.733-.56 0-.987.245-1.281.733-.251.405-.375.897-.375 1.48 0 .565.125 1.05.375 1.454.302.49.724.734 1.268.734.533 0 .953-.249 1.254-.747.258-.412.388-.9.388-1.466zm8.961 3.071h-1.396v-3.51c0-1.082-.421-1.623-1.268-1.623-.414 0-.749.149-1.008.446a1.555 1.555 0 00-.388 1.05v3.635h-1.398v-4.375c0-.539-.016-1.122-.05-1.754h1.227l.065.958H133c.164-.298.407-.543.724-.74a2.41 2.41 0 011.268-.344c.585 0 1.073.184 1.461.555.484.454.724 1.13.724 2.03v3.672zm9.404-5.108h-1.538v2.977c0 .757.273 1.135.814 1.135.251 0 .459-.02.623-.064l.036 1.034c-.276.101-.639.152-1.085.152-.552 0-.982-.164-1.292-.492-.312-.327-.467-.878-.467-1.652v-3.09h-.919v-1.02h.919V10.21l1.369-.403v1.525h1.539v1.022h.001zm7.398 5.108h-1.399v-3.484c0-1.099-.421-1.649-1.265-1.649-.648 0-1.091.319-1.334.956a1.684 1.684 0 00-.065.49v3.686h-1.396v-8.94h1.396v3.694h.027c.44-.672 1.07-1.007 1.888-1.007.578 0 1.057.184 1.437.555.473.461.711 1.148.711 2.055v3.644zm7.63-3.354c0 .244-.018.45-.052.617h-4.19c.018.606.218 1.067.606 1.387.355.286.812.43 1.372.43.62 0 1.186-.097 1.695-.29l.219.946c-.596.252-1.298.378-2.11.378-.973 0-1.74-.28-2.294-.838-.558-.56-.834-1.31-.834-2.25 0-.925.258-1.695.776-2.308.542-.655 1.274-.983 2.198-.983.904 0 1.59.328 2.054.983.375.52.56 1.163.56 1.928zm-1.333-.353c.011-.404-.081-.752-.271-1.046-.242-.378-.612-.568-1.112-.568-.456 0-.828.184-1.112.555a2.03 2.03 0 00-.414 1.06h2.909zM71.527 40.955h-3.028l-1.659-5.081h-5.765l-1.58 5.081h-2.948l5.712-17.3h3.528l5.74 17.3zm-5.187-7.213l-1.5-4.518c-.159-.462-.456-1.548-.895-3.26h-.053a123.23 123.23 0 01-.843 3.26l-1.473 4.518h4.764zm19.876.823c0 2.121-.588 3.798-1.764 5.03-1.053 1.095-2.361 1.642-3.922 1.642-1.686 0-2.896-.59-3.634-1.77h-.053v6.571H74v-13.45c0-1.335-.036-2.704-.105-4.108h2.5l.159 1.978h.053c.948-1.49 2.387-2.234 4.317-2.234 1.51 0 2.77.581 3.778 1.745 1.01 1.165 1.514 2.696 1.514 4.596zm-2.896.1c0-1.213-.28-2.214-.842-3.002-.615-.822-1.44-1.233-2.475-1.233-.701 0-1.339.23-1.908.68a3.142 3.142 0 00-1.119 1.785 3.544 3.544 0 00-.132.845v2.08c0 .908.286 1.673.856 2.299.571.625 1.312.937 2.224.937 1.071 0 1.904-.403 2.5-1.206.598-.805.896-1.866.896-3.184zm17.612-.1c0 2.121-.588 3.798-1.765 5.03-1.052 1.095-2.36 1.642-3.921 1.642-1.686 0-2.896-.59-3.632-1.77h-.054v6.571h-2.842v-13.45c0-1.335-.036-2.704-.106-4.108h2.5l.159 1.978h.053c.947-1.49 2.386-2.234 4.318-2.234 1.508 0 2.768.581 3.778 1.745 1.007 1.165 1.512 2.696 1.512 4.596zm-2.896.1c0-1.213-.281-2.214-.844-3.002-.614-.822-1.437-1.233-2.473-1.233-.703 0-1.339.23-1.91.68a3.14 3.14 0 00-1.117 1.785c-.086.343-.132.624-.132.845v2.08c0 .908.286 1.673.854 2.299.57.624 1.312.937 2.226.937 1.071 0 1.904-.403 2.5-1.206.598-.805.896-1.866.896-3.184zm19.349 1.439c0 1.471-.524 2.669-1.576 3.593-1.156 1.01-2.765 1.514-4.833 1.514-1.909 0-3.44-.358-4.599-1.077l.659-2.31a7.95 7.95 0 004.109 1.105c1.071 0 1.904-.237 2.503-.708.596-.47.893-1.102.893-1.89 0-.702-.245-1.293-.737-1.773-.489-.48-1.307-.926-2.448-1.338-3.107-1.13-4.659-2.784-4.659-4.96 0-1.423.544-2.589 1.634-3.496 1.085-.909 2.533-1.363 4.344-1.363 1.614 0 2.956.275 4.026.822l-.71 2.26c-1-.531-2.131-.796-3.396-.796-1 0-1.782.24-2.342.719-.473.427-.71.949-.71 1.566 0 .684.27 1.25.814 1.694.474.41 1.334.855 2.582 1.335 1.526.6 2.648 1.3 3.369 2.104.719.8 1.077 1.803 1.077 2.999zm9.399-5.544h-3.133v6.057c0 1.54.552 2.31 1.659 2.31.508 0 .929-.043 1.262-.129l.079 2.105c-.56.204-1.297.307-2.211.307-1.122 0-2-.334-2.633-1.001-.631-.668-.948-1.789-.948-3.363v-6.288h-1.867v-2.08h1.867v-2.284l2.792-.822v3.106h3.133v2.082zm14.138 4.055c0 1.918-.563 3.492-1.686 4.723-1.177 1.267-2.74 1.9-4.688 1.9-1.877 0-3.372-.608-4.486-1.822-1.115-1.214-1.672-2.747-1.672-4.594 0-1.933.573-3.517 1.724-4.748 1.148-1.232 2.697-1.848 4.645-1.848 1.877 0 3.388.607 4.528 1.822 1.091 1.18 1.635 2.702 1.635 4.567zm-2.95.09c0-1.15-.252-2.137-.762-2.96-.596-.996-1.448-1.493-2.552-1.493-1.143 0-2.011.498-2.607 1.493-.511.824-.763 1.826-.763 3.012 0 1.15.252 2.137.763 2.959.615.995 1.473 1.492 2.581 1.492 1.086 0 1.938-.507 2.552-1.518.524-.839.788-1.836.788-2.985zm12.19-3.787a5.07 5.07 0 00-.896-.077c-1 0-1.774.368-2.318 1.105-.473.65-.71 1.472-.71 2.464v6.545h-2.842l.027-8.546c0-1.438-.036-2.747-.107-3.927h2.476l.104 2.387h.079c.3-.82.773-1.481 1.421-1.976.634-.446 1.318-.669 2.055-.669.263 0 .5.019.711.051v2.643zm12.713 3.21c0 .496-.033.915-.104 1.257h-8.528c.033 1.232.445 2.175 1.237 2.825.719.58 1.648.872 2.79.872 1.262 0 2.414-.196 3.45-.59l.446 1.924c-1.211.515-2.64.77-4.29.77-1.984 0-3.541-.569-4.674-1.706-1.131-1.138-1.698-2.665-1.698-4.581 0-1.882.527-3.448 1.582-4.697 1.104-1.334 2.596-2.001 4.473-2.001 1.844 0 3.24.667 4.188 2 .751 1.06 1.128 2.37 1.128 3.927zm-2.711-.72c.019-.82-.166-1.53-.552-2.13-.492-.77-1.248-1.156-2.265-1.156-.929 0-1.685.376-2.263 1.13-.473.6-.754 1.318-.841 2.155h5.921v.002z" fill="#fff"/></svg>