<svg width="180" height="52" fill="none" xmlns="http://www.w3.org/2000/svg"><path d="M173.333 52H6.667C3.002 52 0 49.073 0 45.5v-39C0 2.927 3.002 0 6.667 0h166.666C176.998 0 180 2.927 180 6.5v39c0 3.573-3.002 6.5-6.667 6.5z" fill="#000"/><path d="M173.333 1.042c3.087 0 5.599 2.449 5.599 5.458v39c0 3.01-2.512 5.458-5.599 5.458H6.667c-3.087 0-5.599-2.448-5.599-5.458v-39c0-3.01 2.512-5.458 5.599-5.458h166.666zm0-1.042H6.667C3.002 0 0 2.927 0 6.5v39C0 49.073 3.002 52 6.667 52h166.666c3.665 0 6.667-2.927 6.667-6.5v-39c0-3.573-3.002-6.5-6.667-6.5z" fill="#A6A6A6"/><path d="M12.913 9.8c-.391.4-.618 1.023-.618 1.829v28.75c0 .805.227 1.427.618 1.827l.097.088L29.533 26.19v-.38L13.01 9.706l-.097.094zm24.122 21.76l-5.502-5.37v-.38l5.508-5.37.124.07 6.523 3.618c1.862 1.027 1.862 2.717 0 3.75l-6.523 3.613-.13.07zm-.87.931l-5.632-5.49-16.62 16.205c.618.634 1.627.71 2.773.077L36.165 32.49m0-12.98L16.686 8.716c-1.146-.627-2.155-.55-2.773.083L30.533 25l5.632-5.49z" fill="#fff"/><path d="M63.223 13.317c0 1.085-.333 1.955-.99 2.603-.755.769-1.738 1.156-2.943 1.156-1.152 0-2.135-.394-2.942-1.169-.808-.786-1.211-1.752-1.211-2.907s.403-2.12 1.211-2.9c.807-.782 1.79-1.175 2.942-1.175.573 0 1.12.115 1.642.33.52.216.943.508 1.25.869l-.697.686c-.535-.616-1.263-.92-2.195-.92-.84 0-1.568.286-2.187.863-.611.578-.918 1.327-.918 2.247 0 .92.307 1.675.918 2.254.619.57 1.347.863 2.187.863.892 0 1.642-.293 2.233-.87.39-.381.612-.908.67-1.58H59.29v-.94h3.873c.047.203.06.4.06.59v0zm6.145-3.257H65.73v2.47h3.28v.94h-3.28v2.47h3.638v.957H64.7V9.103h4.668v.957zm4.337 6.837h-1.03V10.06h-2.232v-.957h5.495v.957h-2.233v6.837zm6.21 0V9.103h1.028v7.794h-1.028zm5.587 0H84.48V10.06h-2.24v-.957h5.502v.957h-2.24v6.837zm12.643-1.003c-.788.788-1.765 1.182-2.93 1.182-1.172 0-2.148-.394-2.937-1.182-.786-.786-1.178-1.752-1.178-2.894 0-1.142.392-2.108 1.178-2.894.789-.788 1.765-1.181 2.937-1.181 1.158 0 2.135.393 2.923 1.187.794.793 1.185 1.752 1.185 2.888 0 1.142-.391 2.108-1.178 2.894zm-5.105-.653c.593.583 1.315.876 2.175.876.853 0 1.582-.293 2.168-.876.592-.583.892-1.333.892-2.24 0-.91-.3-1.658-.892-2.242-.586-.583-1.315-.876-2.168-.876-.86 0-1.582.293-2.175.876-.592.584-.892 1.333-.892 2.241 0 .908.3 1.658.892 2.24v0zm7.729 1.656V9.103h1.25l3.886 6.062h.045l-.045-1.499V9.103h1.029v7.794h-1.074l-4.07-6.36h-.045l.045 1.504v4.856h-1.021v0z" fill="#fff" stroke="#fff" stroke-width=".16" stroke-miterlimit="10"/><path d="M90.847 28.278c-3.132 0-5.69 2.324-5.69 5.53 0 3.18 2.558 5.528 5.69 5.528 3.138 0 5.697-2.348 5.697-5.528 0-3.206-2.559-5.53-5.697-5.53zm0 8.88c-1.718 0-3.197-1.382-3.197-3.35 0-1.994 1.478-3.352 3.197-3.352 1.718 0 3.203 1.358 3.203 3.352 0 1.968-1.485 3.35-3.203 3.35zm-12.415-8.88c-3.139 0-5.69 2.324-5.69 5.53 0 3.18 2.551 5.528 5.69 5.528 3.136 0 5.69-2.348 5.69-5.528 0-3.206-2.553-5.53-5.69-5.53zm0 8.88c-1.72 0-3.204-1.382-3.204-3.35 0-1.994 1.484-3.352 3.204-3.352 1.718 0 3.197 1.358 3.197 3.352 0 1.968-1.479 3.35-3.197 3.35zm-14.774-7.185v2.35h5.755c-.168 1.313-.618 2.278-1.308 2.95-.84.813-2.148 1.715-4.447 1.715-3.541 0-6.315-2.787-6.315-6.24 0-3.453 2.774-6.24 6.315-6.24 1.915 0 3.309.73 4.337 1.676l1.698-1.656c-1.438-1.34-3.351-2.368-6.035-2.368-4.856 0-8.938 3.853-8.938 8.588 0 4.735 4.082 8.588 8.938 8.588 2.626 0 4.597-.838 6.147-2.411 1.588-1.549 2.083-3.726 2.083-5.484a7.62 7.62 0 00-.13-1.468h-8.1zm60.411 1.822c-.469-1.237-1.914-3.517-4.857-3.517-2.917 0-5.345 2.241-5.345 5.53 0 3.097 2.403 5.528 5.625 5.528a5.656 5.656 0 004.727-2.45l-1.934-1.256c-.645.92-1.523 1.529-2.793 1.529-1.262 0-2.167-.564-2.747-1.675l7.585-3.06-.261-.63zm-7.734 1.84c-.065-2.131 1.699-3.223 2.962-3.223.99 0 1.83.483 2.11 1.173l-5.072 2.05zM110.17 39h2.494V22.75h-2.494V39zm-4.083-9.49h-.083c-.56-.647-1.629-1.232-2.982-1.232-2.84 0-5.437 2.431-5.437 5.548 0 3.099 2.597 5.51 5.437 5.51 1.353 0 2.422-.59 2.982-1.256h.083v.793c0 2.114-1.158 3.25-3.027 3.25-1.523 0-2.468-1.072-2.858-1.974l-2.168.882c.624 1.466 2.28 3.27 5.026 3.27 2.924 0 5.39-1.677 5.39-5.758v-9.928h-2.363v.895zm-2.852 7.649c-1.718 0-3.156-1.402-3.156-3.333 0-1.948 1.438-3.37 3.156-3.37 1.694 0 3.029 1.422 3.029 3.37 0 1.93-1.335 3.333-3.029 3.333zm32.507-14.409h-5.963V39h2.486v-6.157h3.477c2.762 0 5.47-1.949 5.47-5.047s-2.715-5.046-5.47-5.046zm.065 7.832h-3.542V25.01h3.542c1.857 0 2.917 1.503 2.917 2.786 0 1.257-1.06 2.787-2.917 2.787zm15.372-2.335c-1.797 0-3.665.774-4.434 2.488l2.207.902c.475-.902 1.348-1.194 2.272-1.194 1.29 0 2.598.755 2.618 2.09v.17c-.45-.253-1.413-.629-2.598-.629-2.377 0-4.799 1.276-4.799 3.657 0 2.177 1.947 3.58 4.135 3.58 1.674 0 2.597-.737 3.177-1.593h.085v1.256h2.402v-6.233c0-2.882-2.207-4.494-5.065-4.494zm-.3 8.905c-.814 0-1.947-.393-1.947-1.376 0-1.258 1.413-1.74 2.637-1.74 1.095 0 1.608.235 2.273.546-.195 1.504-1.523 2.57-2.963 2.57zm14.115-8.549l-2.859 7.045h-.085l-2.955-7.045h-2.681l4.44 9.844-2.534 5.478h2.599l6.841-15.322h-2.766zM142.579 39h2.493V22.75h-2.493V39z" fill="#fff"/></svg>